<svg xmlns="http://www.w3.org/2000/svg" xmlns:xlink="http://www.w3.org/1999/xlink" width="512" zoomAndPan="magnify" viewBox="0 0 384 383.999986" height="512" preserveAspectRatio="xMidYMid meet" version="1.0"><defs><g/><clipPath id="031fc63f4c"><path d="M 30 -0.171875 L 354 -0.171875 C 370.570312 -0.171875 384 13.257812 384 29.828125 L 384 354 C 384 370.570312 370.570312 384 354 384 L 30 384 C 13.429688 384 0 370.570312 0 354 L 0 29.828125 C 0 13.257812 13.429688 -0.171875 30 -0.171875 Z M 30 -0.171875 " clip-rule="nonzero"/></clipPath><clipPath id="93f581f7f7"><path d="M 86.078125 21.054688 L 332.90625 21.054688 L 332.90625 267.886719 L 86.078125 267.886719 Z M 86.078125 21.054688 " clip-rule="nonzero"/></clipPath></defs><g clip-path="url(#031fc63f4c)"><path fill="#8c52ff" d="M 0 -0.171875 L 384 -0.171875 L 384 383.828125 L 0 383.828125 Z M 0 -0.171875 " fill-opacity="1" fill-rule="nonzero"/></g><g clip-path="url(#93f581f7f7)"><path fill="#ffffff" d="M 209.546875 21.058594 L 216.5 79.855469 C 220.078125 110.128906 243.949219 134 274.222656 137.578125 L 333.023438 144.53125 L 274.222656 151.480469 C 243.949219 155.058594 220.078125 178.929688 216.5 209.203125 L 209.546875 268.003906 L 202.601562 209.203125 C 199.019531 178.929688 175.152344 155.058594 144.875 151.480469 L 86.078125 144.53125 L 144.875 137.578125 C 175.152344 134 199.019531 110.128906 202.601562 79.855469 L 209.546875 21.058594 " fill-opacity="1" fill-rule="nonzero"/></g><g fill="#ffffff" fill-opacity="1"><g transform="translate(39.238133, 362.982891)"><g><path d="M 109.28125 -160.734375 L 173.015625 -29.03125 C 175.691406 -23.675781 177.03125 -19.664062 177.03125 -17 C 177.03125 -11.332031 172.460938 -6.21875 163.328125 -1.65625 C 157.984375 1.019531 153.773438 2.359375 150.703125 2.359375 C 147.640625 2.359375 145.125 1.648438 143.15625 0.234375 C 141.1875 -1.179688 139.769531 -2.675781 138.90625 -4.25 C 138.039062 -5.820312 136.820312 -8.179688 135.25 -11.328125 L 122.96875 -36.828125 L 57.59375 -36.828125 L 45.3125 -11.328125 C 43.738281 -8.179688 42.519531 -5.898438 41.65625 -4.484375 C 40.789062 -3.066406 39.375 -1.609375 37.40625 -0.109375 C 35.4375 1.378906 32.914062 2.125 29.84375 2.125 C 26.78125 2.125 22.578125 0.785156 17.234375 -1.890625 C 8.109375 -6.296875 3.546875 -11.332031 3.546875 -17 C 3.546875 -19.664062 4.878906 -23.675781 7.546875 -29.03125 L 71.28125 -160.96875 C 73.007812 -164.59375 75.644531 -167.503906 79.1875 -169.703125 C 82.726562 -171.910156 86.46875 -173.015625 90.40625 -173.015625 C 98.894531 -173.015625 105.1875 -168.921875 109.28125 -160.734375 Z M 90.15625 -104.09375 L 74.578125 -71.75 L 105.984375 -71.75 Z M 90.15625 -104.09375 "/></g></g></g><g fill="#ffffff" fill-opacity="1"><g transform="translate(246.941703, 362.982891)"><g><path d="M 9.4375 -152.234375 C 9.4375 -155.859375 9.554688 -158.570312 9.796875 -160.375 C 10.035156 -162.1875 10.78125 -164.273438 12.03125 -166.640625 C 14.238281 -170.890625 20.378906 -173.015625 30.453125 -173.015625 C 41.460938 -173.015625 47.988281 -170.101562 50.03125 -164.28125 C 50.820312 -161.601562 51.21875 -157.507812 51.21875 -152 L 51.21875 -20.765625 C 51.21875 -16.992188 51.097656 -14.238281 50.859375 -12.5 C 50.628906 -10.769531 49.882812 -8.726562 48.625 -6.375 C 46.414062 -2.125 40.28125 0 30.21875 0 C 19.195312 0 12.742188 -2.988281 10.859375 -8.96875 C 9.910156 -11.488281 9.4375 -15.5 9.4375 -21 Z M 9.4375 -152.234375 "/></g></g></g></svg>