<svg xmlns="http://www.w3.org/2000/svg" xmlns:xlink="http://www.w3.org/1999/xlink" width="1024" zoomAndPan="magnify" viewBox="0 0 768 191.999996" height="256" preserveAspectRatio="xMidYMid meet" version="1.0"><defs><g/><clipPath id="501eb732c4"><path d="M 104.859375 15.921875 L 204.609375 15.921875 L 204.609375 115.671875 L 104.859375 115.671875 Z M 104.859375 15.921875 " clip-rule="nonzero"/></clipPath></defs><g clip-path="url(#501eb732c4)"><path fill="#8c52ff" d="M 154.8125 15.921875 L 157.625 39.707031 C 159.070312 51.953125 168.726562 61.613281 180.976562 63.058594 L 204.761719 65.871094 L 180.976562 68.683594 C 168.726562 70.132812 159.070312 79.789062 157.625 92.035156 L 154.8125 115.820312 L 152 92.035156 C 150.550781 79.789062 140.894531 70.132812 128.648438 68.683594 L 104.859375 65.871094 L 128.648438 63.058594 C 140.894531 61.613281 150.550781 51.953125 152 39.707031 L 154.8125 15.921875 " fill-opacity="1" fill-rule="nonzero"/></g><g fill="#000000" fill-opacity="1"><g transform="translate(-2.303992, 155.037254)"><g><path d="M 75.59375 -65.0625 C 76.082031 -64.144531 76.375 -63.316406 76.46875 -62.578125 C 76.5625 -61.835938 76.609375 -60.757812 76.609375 -59.34375 L 76.609375 -8.125 C 76.609375 -3.875 75.4375 -1.378906 73.09375 -0.640625 C 71.925781 -0.273438 70.453125 -0.09375 68.671875 -0.09375 C 66.890625 -0.09375 65.472656 -0.242188 64.421875 -0.546875 C 63.378906 -0.859375 62.578125 -1.226562 62.015625 -1.65625 C 61.460938 -2.09375 61.035156 -2.707031 60.734375 -3.5 C 60.421875 -4.550781 60.265625 -6.15625 60.265625 -8.3125 L 60.265625 -39.21875 C 58.734375 -37.3125 56.488281 -34.28125 53.53125 -30.125 C 50.582031 -25.976562 48.707031 -23.378906 47.90625 -22.328125 C 47.101562 -21.285156 46.546875 -20.5625 46.234375 -20.15625 C 45.929688 -19.757812 45.175781 -19.207031 43.96875 -18.5 C 42.769531 -17.789062 41.476562 -17.4375 40.09375 -17.4375 C 38.71875 -17.4375 37.457031 -17.757812 36.3125 -18.40625 C 35.175781 -19.050781 34.363281 -19.6875 33.875 -20.3125 L 33.140625 -21.328125 C 31.898438 -22.859375 29.460938 -26.128906 25.828125 -31.140625 C 22.203125 -36.160156 20.238281 -38.851562 19.9375 -39.21875 L 19.9375 -8.125 C 19.9375 -6.707031 19.890625 -5.644531 19.796875 -4.9375 C 19.703125 -4.226562 19.410156 -3.441406 18.921875 -2.578125 C 17.992188 -0.921875 15.59375 -0.09375 11.71875 -0.09375 C 7.96875 -0.09375 5.628906 -0.921875 4.703125 -2.578125 C 4.210938 -3.441406 3.921875 -4.242188 3.828125 -4.984375 C 3.734375 -5.722656 3.6875 -6.832031 3.6875 -8.3125 L 3.6875 -59.53125 C 3.6875 -60.945312 3.734375 -62.007812 3.828125 -62.71875 C 3.921875 -63.425781 4.210938 -64.238281 4.703125 -65.15625 C 5.628906 -66.757812 8.03125 -67.5625 11.90625 -67.5625 C 13.5625 -67.5625 14.988281 -67.359375 16.1875 -66.953125 C 17.394531 -66.554688 18.179688 -66.144531 18.546875 -65.71875 L 19.109375 -65.15625 L 40.0625 -37.65625 C 50.519531 -51.5 57.503906 -60.632812 61.015625 -65.0625 C 62.054688 -66.726562 64.53125 -67.5625 68.4375 -67.5625 C 72.34375 -67.5625 74.726562 -66.726562 75.59375 -65.0625 Z M 75.59375 -65.0625 "/></g></g></g><g fill="#8c52ff" fill-opacity="1"><g transform="translate(88.623057, 155.037254)"><g><path d="M 42.734375 -62.859375 L 67.65625 -11.359375 C 68.695312 -9.265625 69.21875 -7.691406 69.21875 -6.640625 C 69.21875 -4.429688 67.4375 -2.429688 63.875 -0.640625 C 61.78125 0.398438 60.128906 0.921875 58.921875 0.921875 C 57.722656 0.921875 56.738281 0.644531 55.96875 0.09375 C 55.207031 -0.457031 54.65625 -1.039062 54.3125 -1.65625 C 53.976562 -2.269531 53.503906 -3.195312 52.890625 -4.4375 L 48.09375 -14.390625 L 22.515625 -14.390625 L 17.71875 -4.4375 C 17.101562 -3.195312 16.625 -2.300781 16.28125 -1.75 C 15.945312 -1.195312 15.394531 -0.628906 14.625 -0.046875 C 13.851562 0.535156 12.867188 0.828125 11.671875 0.828125 C 10.472656 0.828125 8.828125 0.304688 6.734375 -0.734375 C 3.171875 -2.460938 1.390625 -4.429688 1.390625 -6.640625 C 1.390625 -7.691406 1.910156 -9.265625 2.953125 -11.359375 L 27.875 -62.953125 C 28.550781 -64.359375 29.582031 -65.492188 30.96875 -66.359375 C 32.351562 -67.222656 33.8125 -67.65625 35.34375 -67.65625 C 38.664062 -67.65625 41.128906 -66.054688 42.734375 -62.859375 Z M 35.25 -40.703125 L 29.171875 -28.0625 L 41.4375 -28.0625 Z M 35.25 -40.703125 "/></g></g></g><g fill="#8c52ff" fill-opacity="1"><g transform="translate(169.84716, 155.037254)"><g><path d="M 3.6875 -59.53125 C 3.6875 -60.945312 3.734375 -62.007812 3.828125 -62.71875 C 3.921875 -63.425781 4.210938 -64.238281 4.703125 -65.15625 C 5.566406 -66.820312 7.96875 -67.65625 11.90625 -67.65625 C 16.207031 -67.65625 18.757812 -66.515625 19.5625 -64.234375 C 19.875 -63.191406 20.03125 -61.59375 20.03125 -59.4375 L 20.03125 -8.125 C 20.03125 -6.644531 19.984375 -5.566406 19.890625 -4.890625 C 19.796875 -4.210938 19.503906 -3.410156 19.015625 -2.484375 C 18.148438 -0.828125 15.75 0 11.8125 0 C 7.507812 0 4.988281 -1.164062 4.25 -3.5 C 3.875 -4.488281 3.6875 -6.0625 3.6875 -8.21875 Z M 3.6875 -59.53125 "/></g></g></g><g fill="#000000" fill-opacity="1"><g transform="translate(204.194659, 155.037254)"><g><path d="M 47.390625 -64.828125 C 47.972656 -65.910156 48.847656 -66.632812 50.015625 -67 C 51.191406 -67.375 52.65625 -67.5625 54.40625 -67.5625 C 56.164062 -67.5625 57.582031 -67.40625 58.65625 -67.09375 C 59.726562 -66.789062 60.523438 -66.421875 61.046875 -65.984375 C 61.578125 -65.554688 61.960938 -64.910156 62.203125 -64.046875 C 62.578125 -63.066406 62.765625 -61.5 62.765625 -59.34375 L 62.765625 -8.125 C 62.765625 -6.644531 62.71875 -5.566406 62.625 -4.890625 C 62.53125 -4.210938 62.238281 -3.410156 61.75 -2.484375 C 60.882812 -0.828125 58.484375 0 54.546875 0 C 52.148438 0 50.488281 -0.179688 49.5625 -0.546875 C 48.632812 -0.921875 47.863281 -1.507812 47.25 -2.3125 C 33.40625 -20.769531 24.300781 -32.828125 19.9375 -38.484375 L 19.9375 -8.125 C 19.9375 -6.644531 19.890625 -5.566406 19.796875 -4.890625 C 19.703125 -4.210938 19.410156 -3.410156 18.921875 -2.484375 C 18.054688 -0.828125 15.65625 0 11.71875 0 C 7.90625 0 5.566406 -0.828125 4.703125 -2.484375 C 4.210938 -3.410156 3.921875 -4.242188 3.828125 -4.984375 C 3.734375 -5.722656 3.6875 -6.800781 3.6875 -8.21875 L 3.6875 -59.71875 C 3.6875 -62.050781 3.976562 -63.753906 4.5625 -64.828125 C 5.15625 -65.910156 6.035156 -66.632812 7.203125 -67 C 8.367188 -67.375 9.875 -67.5625 11.71875 -67.5625 C 13.5625 -67.5625 15.019531 -67.390625 16.09375 -67.046875 C 17.175781 -66.710938 17.929688 -66.332031 18.359375 -65.90625 C 18.609375 -65.71875 19.316406 -64.914062 20.484375 -63.5 C 33.472656 -45.84375 42.148438 -34.179688 46.515625 -28.515625 L 46.515625 -59.71875 C 46.515625 -62.050781 46.804688 -63.753906 47.390625 -64.828125 Z M 47.390625 -64.828125 "/></g></g></g><g fill="#000000" fill-opacity="1"><g transform="translate(281.26532, 155.037254)"><g><path d="M 38.953125 -40.796875 L 55.1875 -40.796875 C 58.507812 -40.671875 60.539062 -39.804688 61.28125 -38.203125 C 61.894531 -37.035156 62.203125 -35.316406 62.203125 -33.046875 L 62.203125 -12.734375 C 62.203125 -10.765625 61.34375 -8.890625 59.625 -7.109375 C 54.457031 -1.753906 46.703125 0.921875 36.359375 0.921875 C 27.191406 0.921875 19.222656 -2.535156 12.453125 -9.453125 C 5.691406 -16.378906 2.3125 -24.734375 2.3125 -34.515625 C 2.3125 -44.296875 5.753906 -52.460938 12.640625 -59.015625 C 19.535156 -65.578125 27.660156 -68.859375 37.015625 -68.859375 C 44.273438 -68.859375 51.132812 -66.457031 57.59375 -61.65625 C 59.25 -60.425781 60.078125 -59.054688 60.078125 -57.546875 C 60.078125 -56.035156 59.375 -54.296875 57.96875 -52.328125 C 55.5625 -49.066406 53.375 -47.4375 51.40625 -47.4375 C 50.238281 -47.4375 48.363281 -48.28125 45.78125 -49.96875 C 43.195312 -51.664062 40.117188 -52.515625 36.546875 -52.515625 C 31.867188 -52.515625 27.710938 -50.867188 24.078125 -47.578125 C 20.453125 -44.285156 18.640625 -39.976562 18.640625 -34.65625 C 18.640625 -29.332031 20.484375 -24.804688 24.171875 -21.078125 C 27.867188 -17.359375 32.054688 -15.5 36.734375 -15.5 C 40.117188 -15.5 43.164062 -16.054688 45.875 -17.171875 L 45.875 -27.234375 L 38.578125 -27.234375 C 36.671875 -27.234375 35.316406 -27.476562 34.515625 -27.96875 C 33.710938 -28.457031 33.1875 -29.175781 32.9375 -30.125 C 32.695312 -31.082031 32.578125 -32.375 32.578125 -34 C 32.578125 -35.632812 32.710938 -36.941406 32.984375 -37.921875 C 33.265625 -38.910156 33.773438 -39.59375 34.515625 -39.96875 C 35.628906 -40.519531 37.109375 -40.796875 38.953125 -40.796875 Z M 38.953125 -40.796875 "/></g></g></g><g fill="#000000" fill-opacity="1"><g transform="translate(357.782187, 155.037254)"><g><path d="M 42.734375 -62.859375 L 67.65625 -11.359375 C 68.695312 -9.265625 69.21875 -7.691406 69.21875 -6.640625 C 69.21875 -4.429688 67.4375 -2.429688 63.875 -0.640625 C 61.78125 0.398438 60.128906 0.921875 58.921875 0.921875 C 57.722656 0.921875 56.738281 0.644531 55.96875 0.09375 C 55.207031 -0.457031 54.65625 -1.039062 54.3125 -1.65625 C 53.976562 -2.269531 53.503906 -3.195312 52.890625 -4.4375 L 48.09375 -14.390625 L 22.515625 -14.390625 L 17.71875 -4.4375 C 17.101562 -3.195312 16.625 -2.300781 16.28125 -1.75 C 15.945312 -1.195312 15.394531 -0.628906 14.625 -0.046875 C 13.851562 0.535156 12.867188 0.828125 11.671875 0.828125 C 10.472656 0.828125 8.828125 0.304688 6.734375 -0.734375 C 3.171875 -2.460938 1.390625 -4.429688 1.390625 -6.640625 C 1.390625 -7.691406 1.910156 -9.265625 2.953125 -11.359375 L 27.875 -62.953125 C 28.550781 -64.359375 29.582031 -65.492188 30.96875 -66.359375 C 32.351562 -67.222656 33.8125 -67.65625 35.34375 -67.65625 C 38.664062 -67.65625 41.128906 -66.054688 42.734375 -62.859375 Z M 35.25 -40.703125 L 29.171875 -28.0625 L 41.4375 -28.0625 Z M 35.25 -40.703125 "/></g></g></g><g fill="#000000" fill-opacity="1"><g transform="translate(439.006296, 155.037254)"><g><path d="M 20.03125 -13.65625 L 45.140625 -13.65625 C 47.160156 -13.65625 48.632812 -13.425781 49.5625 -12.96875 C 50.488281 -12.507812 51.101562 -11.785156 51.40625 -10.796875 C 51.71875 -9.816406 51.875 -8.507812 51.875 -6.875 C 51.875 -5.25 51.71875 -3.941406 51.40625 -2.953125 C 51.101562 -1.972656 50.582031 -1.296875 49.84375 -0.921875 C 48.675781 -0.304688 47.078125 0 45.046875 0 L 11.8125 0 C 7.507812 0 4.988281 -1.164062 4.25 -3.5 C 3.875 -4.488281 3.6875 -6.0625 3.6875 -8.21875 L 3.6875 -59.53125 C 3.6875 -60.945312 3.734375 -62.007812 3.828125 -62.71875 C 3.921875 -63.425781 4.210938 -64.238281 4.703125 -65.15625 C 5.566406 -66.820312 7.96875 -67.65625 11.90625 -67.65625 C 16.207031 -67.65625 18.757812 -66.515625 19.5625 -64.234375 C 19.875 -63.191406 20.03125 -61.59375 20.03125 -59.4375 Z M 20.03125 -13.65625 "/></g></g></g><g fill="#000000" fill-opacity="1"><g transform="translate(503.801214, 155.037254)"><g><path d="M 20.03125 -13.65625 L 45.140625 -13.65625 C 47.160156 -13.65625 48.632812 -13.425781 49.5625 -12.96875 C 50.488281 -12.507812 51.101562 -11.785156 51.40625 -10.796875 C 51.71875 -9.816406 51.875 -8.507812 51.875 -6.875 C 51.875 -5.25 51.71875 -3.941406 51.40625 -2.953125 C 51.101562 -1.972656 50.582031 -1.296875 49.84375 -0.921875 C 48.675781 -0.304688 47.078125 0 45.046875 0 L 11.8125 0 C 7.507812 0 4.988281 -1.164062 4.25 -3.5 C 3.875 -4.488281 3.6875 -6.0625 3.6875 -8.21875 L 3.6875 -59.53125 C 3.6875 -60.945312 3.734375 -62.007812 3.828125 -62.71875 C 3.921875 -63.425781 4.210938 -64.238281 4.703125 -65.15625 C 5.566406 -66.820312 7.96875 -67.65625 11.90625 -67.65625 C 16.207031 -67.65625 18.757812 -66.515625 19.5625 -64.234375 C 19.875 -63.191406 20.03125 -61.59375 20.03125 -59.4375 Z M 20.03125 -13.65625 "/></g></g></g><g fill="#000000" fill-opacity="1"><g transform="translate(568.596133, 155.037254)"><g><path d="M 20.03125 -16.34375 L 48.453125 -16.34375 C 49.867188 -16.34375 50.929688 -16.296875 51.640625 -16.203125 C 52.347656 -16.109375 53.164062 -15.816406 54.09375 -15.328125 C 55.75 -14.460938 56.578125 -12.0625 56.578125 -8.125 C 56.578125 -3.8125 55.4375 -1.285156 53.15625 -0.546875 C 52.113281 -0.179688 50.515625 0 48.359375 0 L 11.8125 0 C 7.507812 0 4.988281 -1.164062 4.25 -3.5 C 3.875 -4.488281 3.6875 -6.0625 3.6875 -8.21875 L 3.6875 -59.53125 C 3.6875 -62.664062 4.269531 -64.800781 5.4375 -65.9375 C 6.613281 -67.082031 8.832031 -67.65625 12.09375 -67.65625 L 48.453125 -67.65625 C 49.867188 -67.65625 50.929688 -67.609375 51.640625 -67.515625 C 52.347656 -67.421875 53.164062 -67.128906 54.09375 -66.640625 C 55.75 -65.773438 56.578125 -63.375 56.578125 -59.4375 C 56.578125 -55.132812 55.4375 -52.613281 53.15625 -51.875 C 52.113281 -51.5 50.515625 -51.3125 48.359375 -51.3125 L 20.03125 -51.3125 L 20.03125 -42 L 38.296875 -42 C 39.710938 -42 40.773438 -41.953125 41.484375 -41.859375 C 42.191406 -41.765625 43.007812 -41.472656 43.9375 -40.984375 C 45.59375 -40.117188 46.421875 -37.71875 46.421875 -33.78125 C 46.421875 -29.46875 45.253906 -26.945312 42.921875 -26.21875 C 41.867188 -25.84375 40.269531 -25.65625 38.125 -25.65625 L 20.03125 -25.65625 Z M 20.03125 -16.34375 "/></g></g></g><g fill="#000000" fill-opacity="1"><g transform="translate(638.098287, 155.037254)"><g><path d="M 55.46875 -11.4375 C 56.394531 -9.226562 56.859375 -7.628906 56.859375 -6.640625 C 56.859375 -4.304688 54.945312 -2.335938 51.125 -0.734375 C 49.15625 0.117188 47.570312 0.546875 46.375 0.546875 C 45.175781 0.546875 44.191406 0.253906 43.421875 -0.328125 C 42.648438 -0.910156 42.082031 -1.507812 41.71875 -2.125 C 41.101562 -3.289062 38.703125 -8.859375 34.515625 -18.828125 L 31.65625 -18.640625 L 20.03125 -18.640625 L 20.03125 -8.21875 C 20.03125 -6.800781 19.984375 -5.738281 19.890625 -5.03125 C 19.796875 -4.320312 19.503906 -3.503906 19.015625 -2.578125 C 18.148438 -0.921875 15.75 -0.09375 11.8125 -0.09375 C 7.507812 -0.09375 4.988281 -1.226562 4.25 -3.5 C 3.875 -4.550781 3.6875 -6.15625 3.6875 -8.3125 L 3.6875 -59.53125 C 3.6875 -60.945312 3.734375 -62.007812 3.828125 -62.71875 C 3.921875 -63.425781 4.210938 -64.238281 4.703125 -65.15625 C 5.566406 -66.820312 7.96875 -67.65625 11.90625 -67.65625 L 31.84375 -67.65625 C 37.257812 -67.65625 42.519531 -65.6875 47.625 -61.75 C 50.082031 -59.84375 52.109375 -57.257812 53.703125 -54 C 55.304688 -50.738281 56.109375 -47.109375 56.109375 -43.109375 C 56.109375 -36.148438 53.800781 -30.425781 49.1875 -25.9375 C 50.539062 -22.675781 52.632812 -17.84375 55.46875 -11.4375 Z M 20.03125 -34.984375 L 31.84375 -34.984375 C 33.625 -34.984375 35.40625 -35.660156 37.1875 -37.015625 C 38.976562 -38.367188 39.875 -40.394531 39.875 -43.09375 C 39.875 -45.800781 38.976562 -47.847656 37.1875 -49.234375 C 35.40625 -50.617188 33.5625 -51.3125 31.65625 -51.3125 L 20.03125 -51.3125 Z M 20.03125 -34.984375 "/></g></g></g><g fill="#000000" fill-opacity="1"><g transform="translate(705.108288, 155.037254)"><g><path d="M 57.40625 -66.359375 C 60.425781 -64.265625 61.9375 -62.234375 61.9375 -60.265625 C 61.9375 -59.097656 61.226562 -57.46875 59.8125 -55.375 L 39.875 -25.5625 L 39.875 -7.9375 C 39.875 -6.519531 39.828125 -5.457031 39.734375 -4.75 C 39.640625 -4.039062 39.347656 -3.222656 38.859375 -2.296875 C 38.367188 -1.378906 37.535156 -0.734375 36.359375 -0.359375 C 35.191406 0.00390625 33.625 0.1875 31.65625 0.1875 C 29.6875 0.1875 28.117188 0.00390625 26.953125 -0.359375 C 25.785156 -0.734375 24.953125 -1.394531 24.453125 -2.34375 C 23.960938 -3.300781 23.671875 -4.132812 23.578125 -4.84375 C 23.484375 -5.550781 23.4375 -6.644531 23.4375 -8.125 L 23.4375 -25.5625 L 3.5 -55.375 C 2.09375 -57.46875 1.390625 -59.097656 1.390625 -60.265625 C 1.390625 -62.234375 2.738281 -64.125 5.4375 -65.9375 C 8.144531 -67.757812 10.082031 -68.671875 11.25 -68.671875 C 12.425781 -68.671875 13.351562 -68.425781 14.03125 -67.9375 C 15.070312 -67.257812 16.179688 -65.992188 17.359375 -64.140625 L 31.65625 -41.25 L 45.96875 -64.140625 C 47.132812 -65.992188 48.144531 -67.210938 49 -67.796875 C 49.863281 -68.378906 50.863281 -68.671875 52 -68.671875 C 53.144531 -68.671875 54.945312 -67.898438 57.40625 -66.359375 Z M 57.40625 -66.359375 "/></g></g></g></svg>